<svg version="1.1" id="Layer_1" xmlns="http://www.w3.org/2000/svg" x="0" y="0" viewBox="0 0 360 360" style="enable-background:new 0 0 360 360" xml:space="preserve"><style>.st2{fill-rule:evenodd;clip-rule:evenodd;fill:#f3ba2f}</style><path d="M-180-180h720v720h-720v-720z" style="fill:none"/><g id="_2419820813232"><circle cx="180" cy="180" r="180" style="fill-rule:evenodd;clip-rule:evenodd;fill:#4d4d4d"/><path class="st2" d="m123.6 156.8 56.4-56.4 56.4 56.4 32.8-32.8L180 34.8 90.8 124l32.8 32.8zM34.8 180l32.8-32.8 32.8 32.8-32.8 32.8L34.8 180zm88.8 23.2 56.4 56.4 56.4-56.4 32.9 32.8-89.3 89.2L90.8 236l-.1-.1 32.9-32.7zM259.5 180l32.8-32.8 32.8 32.8-32.8 32.8-32.8-32.8z"/><path class="st2" d="M216.6 180 180 143.3l-27.1 27.1-3.1 3.1-6.4 6.4-.1.1.1.1 36.6 36.6 36.6-36.7z"/></g></svg>