<svg width="60" height="60" viewBox="0 0 60 60" fill="none" xmlns="http://www.w3.org/2000/svg">
<g clip-path="url(#clip0_346_61)">
<path fill-rule="evenodd" clip-rule="evenodd" d="M26.9533 0.1193C17.1754 1.13227 8.72423 6.63469 3.75044 15.2264C2.04841 18.1664 0.685049 22.1569 0.17915 25.6791C-0.0675293 27.3963 -0.0675293 32.6037 0.17915 34.3209C1.73716 45.1681 9.25497 54.4037 19.6291 58.2149C21.1611 58.7777 23.8357 59.4529 25.5471 59.7089C27.5095 60.0025 31.0454 60.0642 32.9744 59.8388C37.2569 59.3383 41.2349 58.0699 44.6059 56.1304C45.8751 55.4001 46.1121 55.1845 46.3601 54.5352C46.7863 53.419 46.2955 52.1333 45.2331 51.5833C44.4139 51.1593 43.6435 51.2708 42.3419 52.002C36.6154 55.2184 29.8867 56.1096 23.5892 54.486C19.154 53.3424 15.2523 51.0921 11.9781 47.7893C8.07243 43.8497 5.69704 39.1309 4.84626 33.6216C4.56337 31.7897 4.56337 28.2103 4.84626 26.3784C5.97665 19.0582 10.0067 12.8138 16.2458 8.71536C20.6551 5.81907 26.4317 4.36032 31.758 4.79836C36.2356 5.16657 40.0728 6.46981 43.8304 8.8984C45.0464 9.68426 45.8158 9.76993 46.7852 9.22735C47.9512 8.57485 48.2736 6.86028 47.4315 5.78977C47.2937 5.61446 46.677 5.14641 46.0612 4.74961C42.4538 2.42496 38.4679 0.942425 34.0432 0.279378C32.6491 0.070433 28.3595 -0.0263639 26.9533 0.1193ZM56.4888 5.06637C56.0457 5.30368 54.0582 7.72125 43.481 20.8896C34.6349 31.9029 30.8854 36.4874 30.6157 36.6202C30.3565 36.7479 30.1008 36.7824 29.8136 36.7286C29.3413 36.6399 29.8183 37.0723 21.8729 29.5313C19.0548 26.8565 16.5268 24.5452 16.2554 24.395C15.8574 24.175 15.6314 24.1311 15.0875 24.1682C13.4083 24.2829 12.3757 26.0755 13.1545 27.5237C13.5349 28.2311 26.0294 40.0545 26.9956 40.6215C27.8898 41.1462 28.5317 41.3477 29.6124 41.4431C31.1973 41.5832 32.8152 41.0487 33.9818 39.9997C34.5149 39.5206 58.3556 10.0158 59.4069 8.53442C60.4995 6.99458 59.5538 4.95973 57.6863 4.83223C57.1413 4.79508 56.9116 4.83997 56.4888 5.06637ZM55.7229 20.9644C54.4807 21.5395 54.1169 22.5868 54.5385 24.375C56.0254 30.6832 54.8789 37.5042 51.3616 43.275C50.5884 44.5438 50.5666 44.601 50.5666 45.3656C50.5666 46.0504 50.612 46.2158 50.9182 46.6494C51.3961 47.326 52.0231 47.6367 52.9104 47.6367C53.9051 47.6367 54.3599 47.323 55.1572 46.087C59.4308 39.4624 60.8838 31.2449 59.1622 23.4375C58.8828 22.1705 58.7502 21.8668 58.2821 21.4222C57.5724 20.7481 56.5753 20.5697 55.7229 20.9644Z" fill="#6B76FB"/>
</g>
<defs>
<clipPath id="clip0_346_61">
<rect width="60" height="60" fill="white"/>
</clipPath>
</defs>
</svg>
