<svg width="1017" height="1017" viewBox="0 0 1017 1017" fill="none" xmlns="http://www.w3.org/2000/svg">
    <path fill-rule="evenodd" clip-rule="evenodd" d="M213.855 142.711C243.047 142.711 266.711 119.047 266.711 89.8555C266.711 60.6642 243.047 37 213.855 37C184.664 37 161 60.6642 161 89.8555C161 119.047 184.664 142.711 213.855 142.711ZM681.762 607.537H681.887V607.539C695.059 607.551 707.695 602.324 717.009 593.009C726.324 583.695 731.551 571.059 731.539 557.887V557.763C731.546 546.818 727.903 536.183 721.188 527.541C717.896 523.292 713.944 519.599 709.482 516.603C704.899 513.522 699.847 511.207 694.522 509.746C634.14 493.074 592.318 438.14 592.318 375.499C592.318 312.857 634.14 257.924 694.522 241.251C699.847 239.791 704.899 237.476 709.482 234.396C713.944 231.4 717.896 227.707 721.188 223.458C727.903 214.816 731.546 204.182 731.539 193.237V193.112C731.551 179.94 726.324 167.304 717.01 157.99C707.696 148.676 695.06 143.449 681.888 143.461H681.764C670.819 143.454 660.185 147.097 651.543 153.812C647.294 157.104 643.601 161.056 640.605 165.517C637.524 170.099 635.209 175.152 633.748 180.476C616.999 240.806 562.112 282.591 499.5 282.679C436.893 282.578 382.013 240.798 365.252 180.476C363.792 175.152 361.477 170.099 358.397 165.517C355.4 161.056 351.707 157.104 347.458 153.812C338.816 147.097 328.182 143.454 317.238 143.461H317.112C303.94 143.449 291.304 148.676 281.99 157.989C272.676 167.303 267.449 179.939 267.461 193.111V193.236C267.455 204.181 271.097 214.815 277.813 223.457C281.104 227.705 285.056 231.398 289.517 234.395C294.099 237.475 299.152 239.79 304.477 241.25C364.807 258 406.593 312.887 406.68 375.499C406.579 438.105 364.799 492.984 304.477 509.744C299.152 511.205 294.099 513.52 289.517 516.6C285.056 519.597 281.104 523.29 277.813 527.538C271.097 536.181 267.454 546.816 267.461 557.76V557.884C267.449 571.056 272.676 583.692 281.99 593.007C291.303 602.321 303.939 607.549 317.111 607.537H317.236C328.181 607.543 338.814 603.9 347.456 597.185C351.705 593.893 355.398 589.941 358.394 585.48C361.474 580.897 363.79 575.845 365.25 570.52C381.923 510.14 436.857 468.32 499.498 468.32C562.139 468.32 617.072 510.14 633.746 570.52C635.206 575.845 637.522 580.897 640.602 585.48C643.599 589.941 647.292 593.893 651.54 597.185C660.183 603.901 670.818 607.543 681.762 607.537ZM266.711 661.145C266.711 690.336 243.047 714 213.855 714C184.664 714 161 690.336 161 661.145C161 631.953 184.664 608.289 213.855 608.289C243.047 608.289 266.711 631.953 266.711 661.145ZM785.894 142.711C815.086 142.711 838.75 119.047 838.75 89.8555C838.75 60.6642 815.086 37 785.894 37C756.703 37 733.039 60.6642 733.039 89.8555C733.039 119.047 756.703 142.711 785.894 142.711ZM838.75 661.145C838.75 690.336 815.086 714 785.894 714C756.703 714 733.039 690.336 733.039 661.145C733.039 631.953 756.703 608.289 785.894 608.289C815.086 608.289 838.75 631.953 838.75 661.145ZM456.668 360.52C464.849 340.769 484.122 327.892 505.5 327.893C534.676 327.926 558.32 351.571 558.353 380.747C558.353 402.125 545.476 421.398 525.725 429.579C505.974 437.76 483.24 433.237 468.124 418.121C453.008 403.004 448.486 380.27 456.668 360.52Z" fill="white"></path><path d="M192.474 947.035C191.191 949.418 189.174 950.61 186.424 950.61C183.491 950.61 181.383 949.418 180.1 947.035C178.633 944.469 178.633 941.994 180.1 939.611L211.448 887.09C218.414 875.541 221.897 863.075 221.897 849.693C221.897 836.31 218.505 823.845 211.723 812.296L183.95 764.724C182.483 762.341 182.391 759.958 183.675 757.575C185.141 755.192 187.249 754 189.999 754H190.549C193.482 754 195.59 755.192 196.874 757.575L228.771 813.67C231.704 818.803 236.012 821.37 241.695 821.37C247.561 821.37 251.961 818.803 254.894 813.67L287.067 757.575C288.35 755.192 290.367 754 293.116 754H293.666C296.416 754 298.433 755.192 299.716 757.575C301.182 759.958 301.182 762.341 299.716 764.724L271.943 812.021C265.16 823.753 261.769 836.31 261.769 849.693C261.952 863.258 265.527 875.724 272.493 887.09L304.115 939.611C305.399 941.994 305.399 944.469 304.115 947.035C302.649 949.418 300.541 950.61 297.791 950.61H297.241C294.491 950.61 292.475 949.418 291.191 947.035L254.619 884.89C251.869 880.124 247.561 877.741 241.695 877.741C236.012 877.741 231.796 880.124 229.046 884.89L192.474 947.035Z" fill="white"></path><path d="M391.821 889.565C401.72 889.565 409.603 885.44 415.469 877.191C421.335 869.125 422.527 860.325 419.044 850.793L391.821 773.798L364.323 850.793C361.023 860.325 362.215 869.125 367.898 877.191C373.764 885.44 381.738 889.565 391.821 889.565ZM391.271 902.764C377.705 902.764 365.331 906.705 354.149 914.588C342.966 922.47 335.084 932.828 330.501 945.66C329.401 948.96 327.017 950.61 323.351 950.61C320.785 950.61 318.768 949.51 317.302 947.31C315.835 945.294 315.56 943.002 316.477 940.436L382.747 760.05C384.396 756.017 387.421 754 391.821 754C396.221 754 399.154 756.017 400.62 760.05L466.89 940.436C467.807 943.002 467.532 945.294 466.065 947.31C464.599 949.51 462.582 950.61 460.016 950.61C456.533 950.61 454.149 948.96 452.866 945.66C448.283 932.828 440.4 922.47 429.218 914.588C418.036 906.705 405.661 902.764 392.096 902.764H391.271Z" fill="white"></path><path d="M517.463 943.186C517.463 948.135 514.988 950.61 510.038 950.61C505.089 950.61 502.614 948.135 502.614 943.186V763.624C502.614 760.874 503.53 758.583 505.364 756.75C507.38 754.917 509.672 754 512.238 754C515.721 754 518.471 755.375 520.487 758.125L609.856 892.589C613.155 897.356 617.463 898.914 622.78 897.264C628.279 895.614 631.029 891.948 631.029 886.265V761.424C631.029 756.475 633.504 754 638.453 754C643.403 754 645.878 756.475 645.878 761.424V940.986C645.878 943.552 644.961 945.844 643.128 947.86C641.295 949.693 639.003 950.61 636.254 950.61C632.771 950.61 630.112 949.143 628.279 946.21L538.636 811.471C535.52 806.704 531.212 805.146 525.712 806.796C520.212 808.446 517.463 812.112 517.463 817.795V943.186Z" fill="white"></path><path d="M757.027 889.565C766.927 889.565 774.809 885.44 780.676 877.191C786.542 869.125 787.733 860.325 784.25 850.793L757.027 773.798L729.529 850.793C726.23 860.325 727.421 869.125 733.104 877.191C738.97 885.44 746.945 889.565 757.027 889.565ZM756.477 902.764C742.912 902.764 730.538 906.705 719.355 914.588C708.173 922.47 700.29 932.828 695.707 945.66C694.607 948.96 692.224 950.61 688.558 950.61C685.991 950.61 683.975 949.51 682.508 947.31C681.041 945.294 680.767 943.002 681.683 940.436L747.953 760.05C749.603 756.017 752.628 754 757.027 754C761.427 754 764.36 756.017 765.827 760.05L832.097 940.436C833.013 943.002 832.738 945.294 831.272 947.31C829.805 949.51 827.789 950.61 825.222 950.61C821.739 950.61 819.356 948.96 818.073 945.66C813.49 932.828 805.607 922.47 794.425 914.588C783.242 906.705 770.868 902.764 757.302 902.764H756.477Z" fill="white">
    </path>
</svg>